# xmcd
#
# Track frame offsets:
# 150
# 16552
# 35076
# 51208
# 70100
# 84721
# 103224
# 132604
# 149688
# 166385
#
# Disc length: 2371 seconds
#
# Revision: 1
# Processed by: cddbd v1.5.2PL0 Copyright (c) Steve Scherf et al.
# Submitted via: CedeCatalogueitor 2.6.0.6 http://personales.ya.com/cdcatalogueitor
#
DISCID=9009410a
DTITLE=OVNI - Aterrizaje!
DYEAR=1900
DGENRE=
TTITLE0=Aterrizaje
TTITLE1=Tu Necesidad
TTITLE2=Online
TTITLE3=Flores Secas
TTITLE4=Soy Un Robot
TTITLE5=Uno A Uno
TTITLE6=Tal Vez
TTITLE7=Siempre Es Tarde
TTITLE8=Escribir Con Sangre
TTITLE9=30 Grados
EXTD=
EXTT0=
EXTT1=
EXTT2=
EXTT3=
EXTT4=
EXTT5=
EXTT6=
EXTT7=
EXTT8=
EXTT9=
PLAYORDER=
